PathFileType	4	(X/Y/Z)	Patient4_TMGait_0pt8_01_right_02.trc.trc
DataRate	CameraRate	NumFrames	NumMarkers	Units	OrigDataRate	OrigDataStartFrame	OrigNumFrames
86.956521739130	86.956521739130	4	33	mm	86.956521739130	106	       141
Frame#	Time	Sacral			L.Shoulder			Chest			R.Shoulder			Neck			R.ASIS			L.ASIS			R.Thigh.Superior			R.Thigh.Lateral			R.Thigh.Inferior			R.Patella			L.Thigh.Superior			L.Thigh.Lateral			L.Thigh.Inferior			L.Patella			L.Shank.Superior			L.Shank.Lateral			L.Shank.Inferior			R.Shank.Superior			R.Shank.Lateral			R.Shank.Inferior			R.Heel			R.Midfoot.Superior			R.Midfoot.Lateral			R.Toe			L.Heel			L.Midfoot.Lateral			L.Midfoot.Superior			L.Toe			L.Elbow			L.Wrist			R.Elbow			R.Wrist			
		X1	Y1	Z1	X2	Y2	Z2	X3	Y3	Z3	X4	Y4	Z4	X5	Y5	Z5	X6	Y6	Z6	X7	Y7	Z7	X8	Y8	Z8	X9	Y9	Z9	X10	Y10	Z10	X11	Y11	Z11	X12	Y12	Z12	X13	Y13	Z13	X14	Y14	Z14	X15	Y15	Z15	X16	Y16	Z16	X17	Y17	Z17	X18	Y18	Z18	X19	Y19	Z19	X20	Y20	Z20	X21	Y21	Z21	X22	Y22	Z22	X23	Y23	Z23	X24	Y24	Z24	X25	Y25	Z25	X26	Y26	Z26	X27	Y27	Z27	X28	Y28	Z28	X29	Y29	Z29	X30	Y30	Z30	X31	Y31	Z31	X32	Y32	Z32	X33	Y33	Z33	

106	3.097500000000	755.177260652525	1015.906646998692	419.595349979947	995.064487024232	1433.065459094027	260.939749593180	1063.599525528206	1354.660736591975	435.461611285549	960.294649192504	1436.173781929234	595.106252919659	970.925704066919	1494.468148728895	415.260360553997	970.849941277781	948.809121722942	556.555787087508	979.586796779606	959.935855664722	281.518408207299	1061.140895196996	794.741295283450	539.099084687366	1029.312988219482	673.084552576179	617.260661689130	1126.840465899842	638.418835498861	546.506330407894	1155.495994477461	531.055918152328	575.578735120853	1008.324048556634	745.918342402896	308.745620960964	908.605621093697	636.644326852402	251.872516289229	985.713536989899	552.852819481173	315.712922445271	980.079027359956	485.117211974898	327.557906313310	951.377079258205	415.587237014857	321.365136484976	857.235582772378	303.350964953276	275.264724293176	904.389412708348	192.516336982674	348.783792572093	1092.275782192396	446.052634053380	578.544141918941	976.934507330823	384.814167792906	631.815805647321	987.020372314020	274.080365283522	584.662439378314	803.846214955291	175.315360682094	547.149987999321	978.583945887334	149.571102198344	597.177265356404	868.854510574478	124.693550863633	621.963536291290	1061.134479089663	49.090403099238	622.628435520361	773.190661178647	39.566680426276	400.809079713362	843.763554183516	35.472120014805	316.901475375828	928.643975397328	95.980087960004	340.190370042851	1055.605719434000	42.310469164990	306.507317333021	1032.650423403185	1098.447216677617	112.690158021456	1226.785450402825	924.515836493548	135.870585942898	847.682690572812	1100.274740894757	696.817769566373	910.583122092910	847.232700266190	709.527073443265	
107	3.109000000000	754.427344511761	1015.970794361226	419.003292910540	996.085888294904	1432.856406072811	261.390398216350	1063.598503418751	1354.147022942960	436.154201544078	959.667483664264	1435.610769468145	595.442751007972	971.203418611408	1494.116247944256	415.653652263916	969.687828784345	948.566319876212	556.780829242628	979.105678869236	959.585426157049	281.708294751939	1060.465988688588	795.953049767142	539.057458952915	1029.878612596512	674.016788384184	617.320156369006	1127.258757896439	640.027736455129	546.309349970885	1157.757982403271	534.741980373025	575.523861714517	1005.252189840271	744.605604892864	309.136968957855	904.134080778904	636.488473892698	251.746099941315	979.791933974645	551.788649562340	315.608081017261	973.131836858686	484.213540885317	327.561438761313	944.265174674901	415.034880128050	321.284609515933	849.479064509113	303.373206833020	275.190640482973	895.735427807396	192.238717002261	348.799170578838	1098.939362575575	447.759585460614	579.086684315292	988.189284789925	379.939180469908	633.638573497982	1004.693904084352	269.799748829624	586.780634405773	827.886965790933	159.928236186849	550.772517417502	1004.097272944468	145.203414310524	600.646543558180	896.030595132538	114.070849607374	625.967624232572	1092.310456225558	49.834134515910	626.462235845822	763.945661672341	39.639154212420	400.768481565880	834.511866731911	35.455977547466	316.900833844464	919.442652592683	95.936244859128	340.167813400162	1046.377566006332	42.155475206162	306.490194994172	1038.070535324900	1100.332311137602	111.014985713501	1239.671835466963	935.697277965685	136.431004497271	840.997958317769	1101.514674318560	695.755762240724	884.483007239733	844.222853760480	711.680901231016	
108	3.120500000000	753.840576777946	1015.921562661906	418.613356405495	997.064700499040	1432.544632383452	261.990757931870	1063.675032036244	1353.540027976536	436.941858962879	959.200367203311	1434.946566242224	595.933083229514	971.511428609451	1493.663875359397	416.191771080190	968.713183953384	948.143272152055	557.130568760972	978.697252810168	959.158388679504	281.974895558949	1059.498339235924	796.416027395235	539.134635845884	1029.597351653198	674.246589832290	617.369484379451	1126.753859202828	640.657740183619	546.161694215001	1158.810410797097	537.691627732842	575.371781628380	1002.291059420523	743.256467034351	309.594989545203	899.757959879153	636.300165525854	251.698702230669	973.980935251271	550.720518974290	315.543947823913	966.314740123521	483.305118484228	327.589622419026	937.252018776415	414.461551914711	321.252900416809	841.793515274009	303.406564318977	275.153663111805	887.101916898465	191.949611610073	348.853096670900	1104.741421946639	449.094096734008	579.597945555215	999.343482861966	374.727804420316	635.604607672326	1022.516250971281	265.684320580546	588.994070663680	853.210948408629	144.696533821639	554.575802078403	1030.186098965382	141.345179698106	604.134858667397	924.277887566658	103.941992824788	630.116362781862	1123.938327456942	51.728649418371	630.400861913758	754.711947747633	39.721710650554	400.724007568272	825.260977916621	35.445311890403	316.907977434036	910.250095468843	95.890194495375	340.150063514557	1037.144120588191	41.988000988328	306.474857157840	1042.946092632448	1102.091169118946	109.567906005023	1251.502319066605	947.109368647736	137.247139090288	834.313394365581	1102.960395298073	694.764096783797	859.457385737223	843.093791214637	713.466591964958	
109	3.132000000000	753.441868434414	1015.753213403960	418.432940095988	997.987015642980	1432.139060169648	262.734171926575	1063.824537627167	1352.849445595829	437.817284600768	958.899077856688	1434.197845897896	596.570968273244	971.841833250188	1493.118874900682	416.869692810786	967.956230039272	947.548464922109	557.598443385533	978.373935204369	958.655606099383	282.312359447875	1058.250297970586	796.090636775422	539.337786872083	1028.444934069078	673.750137452879	617.442136816427	1125.324105157129	640.280861291141	546.096092952503	1158.653420343554	539.861677766419	575.124043322165	999.455478904787	741.871451299056	310.097678790114	895.462541813837	636.090684523902	251.733665278133	968.264422656576	549.646785094982	315.524243230088	959.618312213210	482.398810119567	327.638937960978	930.315999042033	413.878359354973	321.271886154738	834.162411923275	303.458084294455	275.158569248764	878.493366446464	191.660195989492	348.941948515692	1109.643861812868	450.081566677527	580.079942559424	1010.326975499702	369.316342497150	637.662636264786	1040.349109887489	261.916533239514	591.239893615816	879.682365198187	129.991011110982	558.413701171007	1056.656974531471	138.199133846893	607.535630006790	953.390514334571	94.578471565728	634.245686409130	1155.719177906549	54.911141421168	634.294836711698	745.488564015023	39.818557533407	400.677408722028	816.012792562879	35.444732383965	316.924164828287	901.066785792792	95.842325048770	340.138611177993	1027.904345155677	41.809979529605	306.461032809922	1047.293903856942	1103.697065804344	108.364911846877	1262.245249547812	958.659509773305	138.306410735784	827.602674334539	1104.664799263991	693.883247469279	835.824694014925	843.660217708292	714.861045190377	
